<?xml version="1.0" encoding="utf-8"?>
<!-- Generator: Adobe Illustrator 18.0.0, SVG Export Plug-In . SVG Version: 6.00 Build 0)  -->
<!DOCTYPE svg PUBLIC "-//W3C//DTD SVG 1.1//EN" "http://www.w3.org/Graphics/SVG/1.1/DTD/svg11.dtd">
<svg version="1.1" id="Layer_1" xmlns="http://www.w3.org/2000/svg" xmlns:xlink="http://www.w3.org/1999/xlink" x="0px" y="0px"
	 viewBox="0 0 20 20" enable-background="new 0 0 20 20" xml:space="preserve">
<path fill="#B5B8B9" d="M10,19c-4.9,0-9-4.1-9-9s4.1-9,9-9s9,4.1,9,9S14.9,19,10,19 M10,20c5.5,0,10-4.5,10-10S15.5,0,10,0
	S0,4.5,0,10S4.5,20,10,20L10,20z"/>
<rect x="6.5" y="9.5" fill="#B5B8B9" width="8.5" height="1"/>
<g>
	<polygon fill="#B5B8B9" points="8.1,7.7 8.9,8.4 7.2,10 8.9,11.6 8.1,12.4 5.8,10 	"/>
</g>
</svg>
