<?xml version="1.0" encoding="utf-8"?>
<!-- Generator: Adobe Illustrator 18.0.0, SVG Export Plug-In . SVG Version: 6.00 Build 0)  -->
<!DOCTYPE svg PUBLIC "-//W3C//DTD SVG 1.1//EN" "http://www.w3.org/Graphics/SVG/1.1/DTD/svg11.dtd">
<svg version="1.1" id="Layer_1" xmlns="http://www.w3.org/2000/svg" xmlns:xlink="http://www.w3.org/1999/xlink" x="0px" y="0px"
	 viewBox="-2.5 295.6 1939 488.9" enable-background="new -2.5 295.6 1939 488.9" xml:space="preserve">
<g>
	<path fill="#A4A4A4" d="M54.2,566.6c0,60.8,38,93.7,81.1,93.7c50.7,0,68.4-32.9,73.5-55.7l45.6,20.3c-12.7,38-50.7,83.6-121.6,83.6
		c-78.5,0-134.2-60.8-134.2-141.8c0-83.6,58.3-141.8,134.2-141.8c70.9,0,106.4,45.6,119.1,86.1l-45.6,20.3
		c-7.6-25.3-25.3-55.7-70.9-55.7C92.2,475.4,54.2,505.8,54.2,566.6z"/>
	<path fill="#A4A4A4" d="M1438.5,614.7c2.5,27.9,25.3,50.7,63.3,50.7c30.4,0,45.6-17.7,45.6-35.5c0-17.7-12.7-30.4-35.5-35.5
		l-45.6-10.1c-40.5-10.1-65.9-38-65.9-76c0-45.6,43.1-83.6,93.7-83.6c73.5,0,96.3,48.1,101.3,70.9l-45.6,17.7
		c-2.5-12.7-12.7-45.6-55.7-45.6c-27.9,0-45.6,17.7-45.6,35.5c0,15.2,10.1,27.9,30.4,32.9l43.1,10.1c48.1,10.1,73.5,40.5,73.5,78.5
		c0,38-30.4,83.6-98.8,83.6c-73.5,0-103.9-48.1-108.9-78.5L1438.5,614.7z"/>
	<path fill="#A4A4A4" d="M1666.4,295.6c20.3,0,38,17.7,38,38s-17.7,38-38,38s-38-17.7-38-38S1646.2,295.6,1666.4,295.6z"/>
	<rect x="1641.1" y="434.9" fill="#A4A4A4" width="50.7" height="266"/>
	<path fill="#A4A4A4" d="M1780.4,614.7c2.5,27.9,25.3,50.7,63.3,50.7c30.4,0,45.6-17.7,45.6-35.5c0-17.7-12.7-30.4-35.5-35.5
		l-45.6-10.1c-40.5-10.1-65.9-38-65.9-76c0-45.6,43.1-83.6,93.7-83.6c73.5,0,96.3,48.1,101.3,70.9l-45.6,17.7
		c-2.5-12.7-12.7-45.6-55.7-45.6c-27.9,0-45.6,17.7-45.6,35.5c0,15.2,10.1,27.9,30.4,32.9l43.1,10.1c48.1,10.1,73.5,40.5,73.5,78.5
		c0,38-30.4,83.6-98.8,83.6c-73.5,0-103.9-48.1-108.9-78.5L1780.4,614.7z"/>
	<polygon fill="#A4A4A4" points="1162.4,784.4 1220.6,784.4 1380.2,434.9 1324.5,434.9 1243.4,617.3 1162.4,434.9 1101.6,434.9 
		1215.6,670.4 	"/>
	<rect x="1013.5" y="348.8" fill="#A4A4A4" width="53.2" height="352.1"/>
	<path fill="#A4A4A4" d="M696.9,480.5v-45.6h-58.3v-86.1l0,0l0,0h-53.2v83.6h-50.7v48.1h50.7v146.9c0,48.1,27.9,76,73.5,76
		c17.7,0,30.4-2.5,35.5-5.1v-45.6c-5.1,0-12.7,2.5-20.3,2.5c-27.9,0-38-12.7-38-35.5V480.5H696.9z"/>
	<g>
		<path fill="#A4A4A4" d="M399.7,424.7c-58.3,0-103.9,35.5-108.9,86.1l50.7,12.7c2.5-30.4,22.8-53.2,60.8-53.2
			c40.5,0,58.3,22.8,58.3,48.1c0,10.1-5.1,17.7-20.3,20.3l-73.5,10.1c-45.6,7.6-81.1,32.9-81.1,81.1c0,43.1,35.5,81.1,88.7,81.1
			c45.6,0,70.9-22.8,83.6-43.1v32.9h53.2V523.5C511.1,470.3,478.2,424.7,399.7,424.7z M457.9,586.9c0,58.3-35.5,78.5-76,78.5
			c-27.9,0-43.1-17.7-43.1-38c0-22.8,17.7-35.5,38-40.5l81.1-12.7V586.9z"/>
		<path fill="#A4A4A4" d="M847.9,424.7c-58.3,0-103.9,35.5-108.9,86.1l50.7,12.7c2.5-30.4,22.8-53.2,60.8-53.2
			c40.5,0,58.3,22.8,58.3,48.1c0,10.1-5.1,17.7-20.3,20.3L815,548.9c-45.6,7.6-81.1,32.9-81.1,81.1c0,43.1,35.5,81.1,88.7,81.1
			c45.6,0,70.9-22.8,83.6-43.1v32.9h53.2V523.5C959.3,470.3,928.9,424.7,847.9,424.7z M906.1,586.9c0,58.3-35.5,78.5-76,78.5
			c-27.9,0-43.1-17.7-43.1-38c0-22.8,17.7-35.5,38-40.5l81.1-12.7V586.9z"/>
	</g>
	<path fill="#A4A4A4" d="M1463.8,599.5"/>
</g>
</svg>
