<?xml version="1.0" encoding="utf-8"?>
<!-- Generator: Adobe Illustrator 18.0.0, SVG Export Plug-In . SVG Version: 6.00 Build 0)  -->
<!DOCTYPE svg PUBLIC "-//W3C//DTD SVG 1.1//EN" "http://www.w3.org/Graphics/SVG/1.1/DTD/svg11.dtd">
<svg version="1.1" id="Layer_1" xmlns="http://www.w3.org/2000/svg" xmlns:xlink="http://www.w3.org/1999/xlink" x="0px" y="0px"
	 viewBox="0 0 16 16" style="enable-background:new 0 0 16 16;" xml:space="preserve">
<path style="fill:#FFFFFF;" d="M0.7,16h3V7h-3V16z"/>
<path style="fill:#FFFFFF;" d="M12,6c-1.5,0-2.4,0.7-3.3,1.8V6.3h-3V16h3v-5c0-1.1,0.7-2.3,2-2.3s1.9,1.1,1.9,2.2v5h3v-5.2
	C15.7,6.8,13.5,6,12,6z"/>
<path style="fill:#FFFFFF;" d="M2.1,1.5c-1.1,0-2,0.8-2,1.8c0,1,0.9,1.8,2,1.8c1.1,0,2-0.8,2-1.8C4,2.3,3.2,1.5,2.1,1.5z"/>
</svg>
