<?xml version="1.0" encoding="utf-8"?>
<!-- Generator: Adobe Illustrator 18.0.0, SVG Export Plug-In . SVG Version: 6.00 Build 0)  -->
<!DOCTYPE svg PUBLIC "-//W3C//DTD SVG 1.1//EN" "http://www.w3.org/Graphics/SVG/1.1/DTD/svg11.dtd">
<svg version="1.1" id="Layer_1" xmlns="http://www.w3.org/2000/svg" xmlns:xlink="http://www.w3.org/1999/xlink" x="0px" y="0px"
	 viewBox="0 0 16 16" style="enable-background:new 0 0 16 16;" xml:space="preserve">
<path style="fill:#FFFFFF;" d="M8,0C3.6,0,0,3.6,0,8c0,3.3,2,6.1,4.8,7.3c0-0.6,0-1.2,0.1-1.8c0.2-0.7,1-4.4,1-4.4S5.8,8.6,5.8,7.9
	c0-1.2,0.7-2.1,1.5-2.1C8,5.8,8.4,6.3,8.4,7c0,0.7-0.5,1.8-0.7,2.8c-0.2,0.9,0.4,1.5,1.3,1.5c1.5,0,2.5-2,2.5-4.3
	c0-1.8-1.2-3.1-3.3-3.1c-2.4,0-4,1.8-4,3.8c0,0.7,0.2,1.2,0.5,1.6c0.1,0.2,0.2,0.2,0.1,0.4c0,0.1-0.1,0.5-0.2,0.6
	c-0.1,0.2-0.2,0.3-0.4,0.2c-1.1-0.5-1.6-1.7-1.6-3.1c0-2.3,1.9-5,5.7-5c3.1,0,5.1,2.2,5.1,4.6c0,3.2-1.8,5.5-4.3,5.5
	c-0.9,0-1.7-0.5-2-1c0,0-0.5,1.8-0.6,2.2c-0.2,0.6-0.5,1.2-0.8,1.7C6.5,15.9,7.2,16,8,16c4.4,0,8-3.6,8-8C16,3.6,12.4,0,8,0z"/>
</svg>
