<?xml version="1.0" encoding="utf-8"?>
<!-- Generator: Adobe Illustrator 18.0.0, SVG Export Plug-In . SVG Version: 6.00 Build 0)  -->
<!DOCTYPE svg PUBLIC "-//W3C//DTD SVG 1.1//EN" "http://www.w3.org/Graphics/SVG/1.1/DTD/svg11.dtd">
<svg version="1.1" id="Layer_1" xmlns="http://www.w3.org/2000/svg" xmlns:xlink="http://www.w3.org/1999/xlink" x="0px" y="0px"
	 viewBox="0 0 33.4 25" enable-background="new 0 0 33.4 25" xml:space="preserve">
<g>
	<path fill="#FFFFFF" d="M16.7,20c-4.1,0-7.5-3.4-7.5-7.5S12.5,5,16.7,5s7.5,3.4,7.5,7.5S20.8,20,16.7,20z M16.7,8
		c-2.5,0-4.5,2-4.5,4.5s2,4.5,4.5,4.5s4.5-2,4.5-4.5S19.2,8,16.7,8z"/>
</g>
<g>
	<path fill="#FFFFFF" d="M16.7,25C6.9,25,0.6,13.7,0.4,13.2L0,12.5l0.3-0.7C0.6,11.4,6.1,0,16.7,0C27.3,0,32.8,11.4,33,11.9l0.3,0.7
		L33,13.2C32.7,13.7,26.5,25,16.7,25z M3.4,12.5C4.8,14.7,9.9,22,16.7,22c6.8,0,11.8-7.3,13.3-9.5C28.7,10.2,24,3,16.7,3
		C9.3,3,4.7,10.2,3.4,12.5z"/>
</g>
</svg>
