<?xml version="1.0" encoding="utf-8"?>
<!-- Generator: Adobe Illustrator 18.0.0, SVG Export Plug-In . SVG Version: 6.00 Build 0)  -->
<!DOCTYPE svg PUBLIC "-//W3C//DTD SVG 1.1//EN" "http://www.w3.org/Graphics/SVG/1.1/DTD/svg11.dtd">
<svg version="1.1" id="Layer_1" xmlns="http://www.w3.org/2000/svg" xmlns:xlink="http://www.w3.org/1999/xlink" x="0px" y="0px"
	 viewBox="0 0 20 20" enable-background="new 0 0 20 20" xml:space="preserve">
<path fill="#B5B8B9" d="M10,1c4.9,0,9,4.1,9,9s-4.1,9-9,9s-9-4.1-9-9S5.1,1,10,1 M10,0C4.5,0,0,4.5,0,10s4.5,10,10,10s10-4.5,10-10
	S15.5,0,10,0L10,0z"/>
<rect x="5" y="9.5" fill="#B5B8B9" width="8.5" height="1"/>
<g>
	<polygon fill="#B5B8B9" points="11.9,12.4 11.1,11.6 12.8,10 11.1,8.4 11.9,7.7 14.2,10 	"/>
</g>
</svg>
