<?xml version="1.0" encoding="utf-8"?>
<!-- Generator: Adobe Illustrator 18.0.0, SVG Export Plug-In . SVG Version: 6.00 Build 0)  -->
<!DOCTYPE svg PUBLIC "-//W3C//DTD SVG 1.1//EN" "http://www.w3.org/Graphics/SVG/1.1/DTD/svg11.dtd">
<svg version="1.1" id="Layer_1" xmlns="http://www.w3.org/2000/svg" xmlns:xlink="http://www.w3.org/1999/xlink" x="0px" y="0px"
	 viewBox="0 0 40 40" style="enable-background:new 0 0 40 40;" xml:space="preserve">
<path style="fill:#3524D3;" d="M20,2c9.9,0,18,8.1,18,18s-8.1,18-18,18S2,29.9,2,20S10.1,2,20,2 M20,0C9,0,0,9,0,20s9,20,20,20
	s20-9,20-20S31,0,20,0L20,0z"/>
<rect x="10" y="19" style="fill:#3524D3;" width="17" height="2"/>
<g>
	<polygon style="fill:#3524D3;" points="23.7,24.7 22.3,23.3 25.6,20 22.3,16.7 23.7,15.3 28.4,20 	"/>
</g>
</svg>
