<?xml version="1.0" encoding="utf-8"?>
<!-- Generator: Adobe Illustrator 18.0.0, SVG Export Plug-In . SVG Version: 6.00 Build 0)  -->
<!DOCTYPE svg PUBLIC "-//W3C//DTD SVG 1.1//EN" "http://www.w3.org/Graphics/SVG/1.1/DTD/svg11.dtd">
<svg version="1.1" id="Layer_1" xmlns="http://www.w3.org/2000/svg" xmlns:xlink="http://www.w3.org/1999/xlink" x="0px" y="0px"
	 viewBox="0 0 40 40" style="enable-background:new 0 0 40 40;" xml:space="preserve">
<path style="fill:#3524D3;" d="M20,38c-9.9,0-18-8.1-18-18S10.1,2,20,2s18,8.1,18,18S29.9,38,20,38 M20,40c11,0,20-9,20-20
	S31,0,20,0S0,9,0,20S9,40,20,40L20,40z"/>
<rect x="13" y="19" style="fill:#3524D3;" width="17" height="2"/>
<g>
	<polygon style="fill:#3524D3;" points="16.3,15.3 17.7,16.7 14.4,20 17.7,23.3 16.3,24.7 11.6,20 	"/>
</g>
</svg>
