<?xml version="1.0" encoding="utf-8"?>
<!-- Generator: Adobe Illustrator 18.0.0, SVG Export Plug-In . SVG Version: 6.00 Build 0)  -->
<!DOCTYPE svg PUBLIC "-//W3C//DTD SVG 1.1//EN" "http://www.w3.org/Graphics/SVG/1.1/DTD/svg11.dtd">
<svg version="1.1" id="Layer_1" xmlns="http://www.w3.org/2000/svg" xmlns:xlink="http://www.w3.org/1999/xlink" x="0px" y="0px"
	 viewBox="0 0 241.9 61" style="enable-background:new 0 0 241.9 61;" xml:space="preserve">
<path style="fill:#0A080F;" d="M64.3,28.5c0-6.1-3.6-11.5-13-11.5c-6.8,0-12.2,4.2-12.8,10.2l5.9,1.4c0.4-3.6,2.8-6.3,7.1-6.3
	c4.8,0,6.8,2.5,6.8,5.6c0,1.1-0.5,2.1-2.4,2.3l-8.5,1.2c-5.4,0.8-9.5,3.9-9.5,9.5c0,4.9,4.1,9.4,10.5,9.4c5.4,0,8.4-2.7,9.9-4.9v3.9
	h6.1L64.3,28.5z M58.2,35.9c0,6.8-4,9.2-9.1,9.2C46,45.2,44,43,44,40.6c0-2.8,2-4.3,4.6-4.7l9.6-1.4V35.9z"/>
<path style="fill:#0A080F;" d="M8.9,33.6c0,7.2,4.5,11,9.6,11c5.9,0,8-4,8.7-6.4l5.4,2.3c-1.5,4.5-6,9.8-14.1,9.8
	c-9.1,0-15.8-7.2-15.8-16.7C2.6,23.9,9.4,17,18.4,17c8.3,0,12.6,5.2,13.9,10l-5.5,2.3c-0.8-3.1-3.1-6.6-8.4-6.6
	C13.4,22.7,8.9,26.4,8.9,33.6z"/>
<path style="fill:#0A080F;" d="M197.9,41.2c-0.5,3.6-4.2,9.1-12.8,9.1c-7.7,0-11.5-5.3-11.5-9.7c0-4.6,3-8.1,8.7-9.3l5.1-1.1
	c2.4-0.5,3.6-1.9,3.6-3.8c0-2.1-2.1-4.2-5.2-4.2c-4.9,0-6.3,3.6-6.5,5.2l-5.4-2c0.7-2.8,3.3-8.4,11.9-8.4c6.1,0,11.1,4.6,11.1,9.9
	c0,4.4-2.9,7.7-7.8,8.8l-5.3,1.2c-2.6,0.6-4,2.1-4,4c0,2.2,1.9,4.2,5.3,4.2c4.4,0,6.9-2.6,7.3-5.9L197.9,41.2z"/>
<path style="fill:#0A080F;" d="M206.3,1.7c2.5,0,4.4,2,4.4,4.4c0,2.4-2,4.4-4.4,4.4c-2.4,0-4.4-2-4.4-4.4
	C201.9,3.7,203.8,1.7,206.3,1.7z M203.3,49.3V18h6.1v31.3H203.3z"/>
<path style="fill:#0A080F;" d="M220.4,39.2c0.4,3.3,2.9,5.9,7.3,5.9c3.5,0,5.3-2,5.3-4.2c0-2-1.4-3.5-4-4l-5.3-1.2
	c-4.9-1-7.8-4.4-7.8-8.8c0-5.3,5-9.9,11.1-9.9c8.6,0,11.3,5.6,11.9,8.4l-5.4,2c-0.3-1.6-1.6-5.2-6.5-5.2c-3.1,0-5.2,2-5.2,4.2
	c0,1.9,1.2,3.3,3.6,3.8l5.1,1.1c5.7,1.2,8.7,4.7,8.7,9.3c0,4.4-3.7,9.7-11.5,9.7c-8.6,0-12.2-5.5-12.8-9.1L220.4,39.2z"/>
<polygon style="fill:#0A080F;" points="145.8,59.2 152.4,59.2 171.3,18 164.7,18 155.4,39.6 145.6,18 138.5,18 152,45.9 "/>
<rect x="127.2" y="8.1" style="fill:#0A080F;" width="6.1" height="41.2"/>
<path style="fill:#0A080F;" d="M87.2,23.6V18h-6.8V8.1h0v0h-6.1V18l-6,0v5.5h6v17.2c0,5.7,3.4,8.9,8.7,8.9c2.1,0,3.6-0.4,4.2-0.6
	v-5.2c-0.5,0.1-1.6,0.3-2.4,0.3c-3.2,0-4.4-1.4-4.4-4.3V23.6H87.2z"/>
<path style="fill:#0A080F;" d="M119.6,28.5c0-6.1-3.6-11.5-13-11.5c-6.8,0-12.2,4.2-12.8,10.2l5.9,1.4c0.4-3.6,2.8-6.3,7.1-6.3
	c4.8,0,6.8,2.5,6.8,5.6c0,1.1-0.5,2.1-2.4,2.3l-8.5,1.2c-5.4,0.8-9.5,3.9-9.5,9.5c0,4.9,4.1,9.4,10.5,9.4c5.4,0,8.4-2.7,9.9-4.9v3.9
	h6.1L119.6,28.5z M113.5,35.9c0,6.8-4,9.2-9.1,9.2c-3.1,0-5.1-2.2-5.1-4.6c0-2.8,2-4.3,4.6-4.7l9.6-1.4V35.9z"/>
</svg>
