<?xml version="1.0" encoding="utf-8"?>
<!-- Generator: Adobe Illustrator 18.0.0, SVG Export Plug-In . SVG Version: 6.00 Build 0)  -->
<!DOCTYPE svg PUBLIC "-//W3C//DTD SVG 1.1//EN" "http://www.w3.org/Graphics/SVG/1.1/DTD/svg11.dtd">
<svg version="1.1" id="Layer_1" xmlns="http://www.w3.org/2000/svg" xmlns:xlink="http://www.w3.org/1999/xlink" x="0px" y="0px"
	 viewBox="0 0 100 25.5" enable-background="new 0 0 100 25.5" xml:space="preserve">
<g>
	<path fill="#FFFFFF" d="M2.5,14.1c0,2.8,1.8,4.3,3.9,4.3c2.4,0,3.2-1.6,3.5-2.5l2.2,0.9c-0.6,1.8-2.4,3.8-5.7,3.8
		c-3.7,0-6.4-2.8-6.4-6.6c0-3.8,2.8-6.5,6.4-6.5c3.4,0,5.1,2,5.6,3.9l-2.2,0.9c-0.3-1.2-1.2-2.6-3.4-2.6C4.4,9.8,2.5,11.2,2.5,14.1z
		"/>
	<path fill="#FFFFFF" d="M18.4,13.2l3.4-0.5c0.8-0.1,1-0.5,1-0.9c0-1.2-0.8-2.2-2.7-2.2c-1.7,0-2.7,1.1-2.9,2.5l-2.4-0.5
		c0.3-2.4,2.4-4,5.2-4c3.8,0,5.3,2.1,5.3,4.5v6.2c0,1.1,0.1,1.7,0.2,2H23c-0.1-0.3-0.1-0.8-0.1-1.7c-0.6,0.9-1.8,2-4.1,2
		c-2.6,0-4.2-1.7-4.2-3.7C14.6,14.7,16.2,13.5,18.4,13.2z M22.8,15v-0.6L18.9,15c-1.1,0.2-1.8,0.7-1.8,1.8c0,0.9,0.8,1.8,2.1,1.8
		C21.2,18.6,22.8,17.6,22.8,15z"/>
	<path fill="#FFFFFF" d="M32.4,7.9h2.7v2.2h-2.7v6.7c0,1.1,0.5,1.7,1.8,1.7c0.3,0,0.8-0.1,1-0.1v2c-0.2,0.1-0.8,0.2-1.7,0.2
		c-2.2,0-3.5-1.3-3.5-3.5v-7h-2.4V7.9H30V6.1v-2h2.5V7.9z"/>
	<path fill="#FFFFFF" d="M41.7,13.2l3.4-0.5c0.8-0.1,1-0.5,1-0.9c0-1.2-0.8-2.2-2.7-2.2c-1.7,0-2.7,1.1-2.9,2.5l-2.4-0.5
		c0.3-2.4,2.4-4,5.2-4c3.8,0,5.3,2.1,5.3,4.5v6.2c0,1.1,0.1,1.7,0.2,2h-2.4c-0.1-0.3-0.1-0.8-0.1-1.7c-0.6,0.9-1.8,2-4.1,2
		c-2.6,0-4.2-1.7-4.2-3.7C37.9,14.7,39.5,13.5,41.7,13.2z M46.1,15v-0.6L42.2,15c-1.1,0.2-1.8,0.7-1.8,1.8c0,0.9,0.8,1.8,2.1,1.8
		C44.5,18.6,46.1,17.6,46.1,15z"/>
	<path fill="#FFFFFF" d="M52.2,20.2l0-16.1h2.5l0,16.1H52.2z"/>
	<path fill="#FFFFFF" d="M59.8,24l2.7-5.2l-5.4-11h2.8l3.9,8.5l3.8-8.5h2.7L62.5,24H59.8z"/>
	<path fill="#FFFFFF" d="M73.7,16.3c0.2,1.3,1.2,2.3,2.9,2.3c1.4,0,2.2-0.8,2.2-1.6c0-0.8-0.6-1.4-1.6-1.6l-2.2-0.5
		c-2-0.4-3.2-1.7-3.2-3.5c0-2.1,2-3.9,4.5-3.9c3.5,0,4.6,2.2,4.8,3.3L79,11.6c-0.1-0.6-0.6-2-2.6-2c-1.3,0-2.1,0.8-2.1,1.6
		c0,0.7,0.5,1.3,1.4,1.5l2.1,0.4c2.3,0.5,3.5,1.8,3.5,3.7c0,1.7-1.5,3.8-4.6,3.8c-3.5,0-4.9-2.2-5.2-3.6L73.7,16.3z"/>
	<path fill="#FFFFFF" d="M92.1,16.3c0.2,1.3,1.2,2.3,2.9,2.3c1.4,0,2.2-0.8,2.2-1.6c0-0.8-0.6-1.4-1.6-1.6l-2.2-0.5
		c-2-0.4-3.2-1.7-3.2-3.5c0-2.1,2-3.9,4.5-3.9c3.5,0,4.6,2.2,4.8,3.3l-2.2,0.8c-0.1-0.6-0.6-2-2.6-2c-1.3,0-2.1,0.8-2.1,1.6
		c0,0.7,0.5,1.3,1.4,1.5l2.1,0.4c2.3,0.5,3.5,1.8,3.5,3.7c0,1.7-1.5,3.8-4.6,3.8c-3.5,0-4.9-2.2-5.2-3.6L92.1,16.3z"/>
	<g>
		<path fill="#FFFFFF" d="M85.5,1.5c1,0,1.7,0.8,1.7,1.7c0,1-0.8,1.7-1.7,1.7c-1,0-1.7-0.8-1.7-1.7C83.8,2.2,84.5,1.5,85.5,1.5z
			 M84.3,20.2V7.9h2.4v12.4H84.3z"/>
	</g>
</g>
</svg>
