<?xml version="1.0" encoding="utf-8"?>
<!-- Generator: Adobe Illustrator 18.0.0, SVG Export Plug-In . SVG Version: 6.00 Build 0)  -->
<!DOCTYPE svg PUBLIC "-//W3C//DTD SVG 1.1//EN" "http://www.w3.org/Graphics/SVG/1.1/DTD/svg11.dtd">
<svg version="1.1" id="Isolation_Mode" xmlns="http://www.w3.org/2000/svg" xmlns:xlink="http://www.w3.org/1999/xlink" x="0px"
	 y="0px" viewBox="0 0 32 30" enable-background="new 0 0 32 30" xml:space="preserve">
<path d="M16.6,0C8.4,0,4.3,5.9,4.3,10.8c0,3,1.1,5.6,3.5,6.6c0.4,0.2,0.7,0,0.9-0.4c0.1-0.3,0.3-1.1,0.4-1.4c0.1-0.4,0.1-0.6-0.2-1
	c-0.7-0.8-1.1-1.9-1.1-3.4c0-4.4,3.3-8.3,8.5-8.3c4.6,0,7.2,2.8,7.2,6.6c0,5-2.2,9.2-5.5,9.2c-1.8,0-3.2-1.5-2.7-3.3
	c0.5-2.2,1.5-4.5,1.5-6.1c0-1.4-0.8-2.6-2.3-2.6c-1.8,0-3.3,1.9-3.3,4.5c0,1.6,0.5,2.7,0.5,2.7s-1.9,8-2.2,9.4
	c-0.7,2.8-0.1,6.2-0.1,6.5c0,0.2,0.3,0.3,0.4,0.1c0.2-0.2,2.4-2.9,3.1-5.6c0.2-0.8,1.2-4.7,1.2-4.7c0.6,1.1,2.3,2.1,4.2,2.1
	c5.5,0,9.3-5,9.3-11.8C27.5,4.8,23.2,0,16.6,0"/>
</svg>
