<?xml version="1.0" encoding="utf-8"?>
<!-- Generator: Adobe Illustrator 18.0.0, SVG Export Plug-In . SVG Version: 6.00 Build 0)  -->
<!DOCTYPE svg PUBLIC "-//W3C//DTD SVG 1.1//EN" "http://www.w3.org/Graphics/SVG/1.1/DTD/svg11.dtd">
<svg version="1.1" id="Isolation_Mode" xmlns="http://www.w3.org/2000/svg" xmlns:xlink="http://www.w3.org/1999/xlink" x="0px"
	 y="0px" viewBox="0 0 30 30" enable-background="new 0 0 30 30" xml:space="preserve">
<path d="M24.1,15c0,5-4.1,9.1-9.1,9.1c-5,0-9.1-4.1-9.1-9.1c0-0.6,0.1-1.2,0.2-1.7H0v12.1C0,27.9,2.1,30,4.7,30h20.6
	c2.6,0,4.7-2.1,4.7-4.7V13.3h-6.1C24,13.8,24.1,14.4,24.1,15 M25.3,0H4.7C2.1,0,0,2.1,0,4.7v5.1h7.6c1.6-2.3,4.3-3.8,7.4-3.8
	c3.1,0,5.8,1.5,7.4,3.8H30V4.7C30,2.1,27.9,0,25.3,0 M27.6,5.8c0,0.5-0.4,0.8-0.8,0.8h-2.5c-0.5,0-0.8-0.4-0.8-0.8V3.3
	c0-0.5,0.4-0.8,0.8-0.8h2.5c0.5,0,0.8,0.4,0.8,0.8V5.8z M20.6,15c0-3.1-2.5-5.6-5.6-5.6S9.4,11.9,9.4,15c0,3.1,2.5,5.6,5.6,5.6
	S20.6,18.1,20.6,15"/>
</svg>
