<?xml version="1.0" encoding="utf-8"?>
<!-- Generator: Adobe Illustrator 18.0.0, SVG Export Plug-In . SVG Version: 6.00 Build 0)  -->
<!DOCTYPE svg PUBLIC "-//W3C//DTD SVG 1.1//EN" "http://www.w3.org/Graphics/SVG/1.1/DTD/svg11.dtd">
<svg version="1.1" id="Isolation_Mode" xmlns="http://www.w3.org/2000/svg" xmlns:xlink="http://www.w3.org/1999/xlink" x="0px"
	 y="0px" viewBox="0 0 32 30" enable-background="new 0 0 32 30" xml:space="preserve">
<path d="M31,6.2c-0.1,1.1-1.8,2.3-2.8,3.1c1,14.4-15.3,23.4-27.2,16.1c3.3,0,7-0.9,9-2.8c-2.9-0.5-4.9-1.8-5.7-4.3
	c0.8-0.1,2,0.2,2.6-0.2c-2.6-1-4.7-2.6-4.9-6.1c0.9,0.1,1.4,0.7,2.6,0.5C2.9,11.5,1,7.4,2.7,4.3c3.1,3.4,7,6.1,13,6.6
	c-1.5-6.4,7-10.3,10.8-5.7c1.5-0.3,2.7-0.9,4-1.4c-0.5,1.4-1.6,2.4-2.6,3.3C29,6.9,30.2,6.7,31,6.2"/>
</svg>
