<?xml version="1.0" encoding="utf-8"?>
<!-- Generator: Adobe Illustrator 18.0.0, SVG Export Plug-In . SVG Version: 6.00 Build 0)  -->
<!DOCTYPE svg PUBLIC "-//W3C//DTD SVG 1.1//EN" "http://www.w3.org/Graphics/SVG/1.1/DTD/svg11.dtd">
<svg version="1.1" id="Isolation_Mode" xmlns="http://www.w3.org/2000/svg" xmlns:xlink="http://www.w3.org/1999/xlink" x="0px"
	 y="0px" viewBox="0 0 32 30" enable-background="new 0 0 32 30" xml:space="preserve">
<path d="M25.6,30V17.9c0,0-0.4-3.2-3.5-3.2c-3.1,0-3.7,3.1-3.7,3.1V30H12l0.1-20h6.3l-0.1,2.5c0,0,1.3-3.3,6.2-3.3
	c4.9,0,7.1,2.8,7.5,8.1V30H25.6z M4,7.1c-2.2,0-4-1.6-4-3.6C0,1.6,1.8,0,4,0c2.2,0,4,1.6,4,3.6C8,5.5,6.2,7.1,4,7.1 M8,30H0.1V10
	L8,10V30z"/>
</svg>
