<?xml version="1.0" encoding="utf-8"?>
<!-- Generator: Adobe Illustrator 18.0.0, SVG Export Plug-In . SVG Version: 6.00 Build 0)  -->
<!DOCTYPE svg PUBLIC "-//W3C//DTD SVG 1.1//EN" "http://www.w3.org/Graphics/SVG/1.1/DTD/svg11.dtd">
<svg version="1.1" id="Isolation_Mode" xmlns="http://www.w3.org/2000/svg" xmlns:xlink="http://www.w3.org/1999/xlink" x="0px"
	 y="0px" viewBox="0 0 32 30" enable-background="new 0 0 32 30" xml:space="preserve">
<g>
	<path d="M30.6,14.7h-5v-5c0-0.4-0.3-0.7-0.7-0.7h-1.4c-0.4,0-0.7,0.3-0.7,0.7v5h-5c-0.4,0-0.7,0.3-0.7,0.7v1.4
		c0,0.4,0.3,0.7,0.7,0.7h5v5c0,0.4,0.3,0.7,0.7,0.7h1.4c0.4,0,0.7-0.3,0.7-0.7v-5h5c0.4,0,0.7-0.3,0.7-0.7v-1.4
		C31.3,15,31,14.7,30.6,14.7"/>
	<path d="M16.5,16.6c-1.1-0.7-2-1.9-2-2.2c0-0.6,0.1-0.9,1.4-2c1.8-1.4,2.8-3.2,2.8-5.2c0-1.8-0.5-3.3-1.5-4.4h0.7
		c0.1,0,0.3,0,0.4-0.1l2-1.4c0.2-0.2,0.4-0.5,0.3-0.8C20.4,0.2,20.2,0,19.9,0H11c-1,0-2,0.2-2.9,0.5C4.9,1.6,2.6,4.4,2.6,7.2
		c0,4,3.1,7,7.2,7.1c-0.1,0.3-0.1,0.6-0.1,0.9c0,0.6,0.2,1.2,0.5,1.8h-0.1c-3.9,0-7.5,1.9-8.9,4.8c-0.4,0.7-0.5,1.5-0.5,2.3
		c0,0.7,0.2,1.4,0.6,2.1c0.9,1.5,2.7,2.7,5.1,3.3C7.7,29.8,9,30,10.5,30c1.3,0,2.5-0.2,3.6-0.5c3.5-1,5.8-3.6,5.8-6.6
		C19.9,20.1,18.9,18.3,16.5,16.6 M5.3,23.2c0-2.1,2.6-3.9,5.7-3.9H11c0.7,0,1.3,0.1,1.9,0.3c0.2,0.1,0.4,0.3,0.6,0.4
		c1.4,1,2.3,1.6,2.6,2.6c0.1,0.3,0.1,0.5,0.1,0.8c0,2.6-1.9,3.9-5.8,3.9C7.5,27.2,5.3,25.4,5.3,23.2 M8,3.5c0.5-0.5,1.1-0.8,1.8-0.8
		l0.1,0c2,0.1,3.8,2.2,4.2,4.9c0.2,1.5-0.1,2.9-0.9,3.7c-0.5,0.5-1.1,0.8-1.8,0.8h0h0C9.4,12,7.5,9.7,7.2,7.1C7,5.6,7.3,4.3,8,3.5"
		/>
</g>
</svg>
