<?xml version="1.0" encoding="utf-8"?>
<!-- Generator: Adobe Illustrator 18.0.0, SVG Export Plug-In . SVG Version: 6.00 Build 0)  -->
<!DOCTYPE svg PUBLIC "-//W3C//DTD SVG 1.1//EN" "http://www.w3.org/Graphics/SVG/1.1/DTD/svg11.dtd">
<svg version="1.1" xmlns="http://www.w3.org/2000/svg" xmlns:xlink="http://www.w3.org/1999/xlink" x="0px" y="0px"
	 viewBox="0 0 50 48" enable-background="new 0 0 50 48" xml:space="preserve">
<g id="Layer_2">
</g>
<g id="Layer_1">
	<g>
		<path d="M25.5,4C28,4,30,6,30,8.5S28,13,25.5,13S21,11,21,8.5S23,4,25.5,4 M25.5,0C20.8,0,17,3.8,17,8.5s3.8,8.5,8.5,8.5
			S34,13.2,34,8.5S30.2,0,25.5,0L25.5,0z"/>
	</g>
	<g>
		<path d="M41.5,35c2.5,0,4.5,2,4.5,4.5S44,44,41.5,44S37,42,37,39.5S39,35,41.5,35 M41.5,31c-4.7,0-8.5,3.8-8.5,8.5
			s3.8,8.5,8.5,8.5s8.5-3.8,8.5-8.5S46.2,31,41.5,31L41.5,31z"/>
	</g>
	<g>
		<path d="M8.5,35c2.5,0,4.5,2,4.5,4.5S11,44,8.5,44S4,42,4,39.5S6,35,8.5,35 M8.5,31C3.8,31,0,34.8,0,39.5S3.8,48,8.5,48
			s8.5-3.8,8.5-8.5S13.2,31,8.5,31L8.5,31z"/>
	</g>
	<g>
		<path fill="none" stroke="#000000" stroke-width="2" stroke-miterlimit="10" d="M22.5,45"/>
	</g>
	<polygon points="37.3,33.5 27,24.1 27,16 23,16 23,24.1 12.7,33.5 15.3,36.5 25,27.7 34.7,36.5 	"/>
</g>
</svg>
