<?xml version="1.0" encoding="utf-8"?>
<!-- Generator: Adobe Illustrator 18.0.0, SVG Export Plug-In . SVG Version: 6.00 Build 0)  -->
<!DOCTYPE svg PUBLIC "-//W3C//DTD SVG 1.1//EN" "http://www.w3.org/Graphics/SVG/1.1/DTD/svg11.dtd">
<svg version="1.1" id="Layer_1" xmlns="http://www.w3.org/2000/svg" xmlns:xlink="http://www.w3.org/1999/xlink" x="0px" y="0px"
	 viewBox="0 0 16 16" style="enable-background:new 0 0 16 16;" xml:space="preserve">
<path style="fill:#FFFFFF;" d="M16,4.6c-0.3,0.1-1.1,0.4-1.8,0.5c0.5-0.3,1.2-1.1,1.4-1.8C15.1,3.6,14,4,13.5,4c0,0,0,0,0,0
	c-0.6-0.6-1.4-1-2.4-1C9.3,3,7.8,4.5,7.8,6.3c0,0.3,0,0.5,0.1,0.7h0C5.4,7,2.7,5.7,1.1,3.6c-1,1.7-0.1,3.7,1,4.4
	C1.7,8,1,7.9,0.6,7.6c0,1.1,0.5,2.7,2.5,3.2C2.8,11,2.1,11,1.8,10.9c0.1,1,1.5,2.2,3,2.2c-0.5,0.6-2.5,1.7-4.8,1.4
	C1.5,15.5,3.3,16,5.2,16c5.3,0,9.5-4.3,9.2-9.6c0,0,0,0,0,0c0,0,0,0,0,0c0,0,0,0,0,0C14.9,5.9,15.5,5.3,16,4.6z"/>
</svg>
