<?xml version="1.0" encoding="utf-8"?>
<!-- Generator: Adobe Illustrator 18.0.0, SVG Export Plug-In . SVG Version: 6.00 Build 0)  -->
<!DOCTYPE svg PUBLIC "-//W3C//DTD SVG 1.1//EN" "http://www.w3.org/Graphics/SVG/1.1/DTD/svg11.dtd">
<svg version="1.1" id="Layer_1" xmlns="http://www.w3.org/2000/svg" xmlns:xlink="http://www.w3.org/1999/xlink" x="0px" y="0px"
	 viewBox="0 0 16 16" style="enable-background:new 0 0 16 16;" xml:space="preserve">
<path style="fill:#FFFFFF;" d="M0,5.7c1.4-1.1,3.4-3.4,5-3.4c1.6,0,1.9,1.7,2.2,3.3c0.2,1.6,0.8,5.2,1.7,5.2c0.8,0,2.7-3.2,2.6-4.4
	c-0.1-1.2-1.5-1-2.2-0.7c0.7-2.4,2.3-3.9,4.3-3.9c2,0,2.5,1.6,2.5,3.3c0,2.6-5.4,10.7-8.7,10.7c-2,0-2.5-2.9-3-4.4
	C3.9,10,3.1,6.2,2.1,5.9C1.8,5.9,0.7,6.7,0.7,6.7L0,5.7z"/>
</svg>
